# AST/ASF file generated using VICON BodyLanguage
# -----------------------------------------------
:version 1.10
:name VICON
:units
  mass 1.0
  length 0.45
  angle deg
:documentation
   .ast/.asf automatically generated from VICON data using
   VICON BodyBuilder and BodyLanguage model FoxedUp or BRILLIANT.MOD
:root
   order TX TY TZ RX RY RZ
   axis XYZ
   position 0 0 0  
   orientation 0 0 0 
:bonedata
  begin
     id 1 
     name lhipjoint
     direction 0.734343 -0.627749 0.258209 
     length 2.5437 
     axis 0 0 0  XYZ
  end
  begin
     id 2 
     name lfemur
     direction 0.34202 -0.939693 0  
     length 6.7391  
     axis 0 0 20  XYZ
    dof rx ry rz
    limits (-160.0 20.0)
           (-70.0 70.0)
           (-60.0 70.0)
  end
  begin
     id 3 
     name ltibia
     direction 0.34202 -0.939693 0   
     length 7.21536   
     axis 0 0 20   XYZ
    dof rx
    limits (-10.0 170.0)
  end
  begin
     id 4 
     name lfoot
     direction 0.0489572 -0.134509 0.989702   
     length 1.61313   
     axis -90 7.62852e-016 20   XYZ
    dof rx rz
    limits (-45.0 90.0)
           (-70.0 20.0)
  end
  begin
     id 5 
     name ltoes
     direction 1.53451e-011 -4.21692e-011 1   
     length 0.823104   
     axis -90 7.62852e-016 20   XYZ
    dof rx
    limits (-90.0 20.0)
  end
  begin
     id 6 
     name rhipjoint
     direction -0.746398 -0.615468 0.253157   
     length 2.59446  
     axis 0 0 0  XYZ 
  end
  begin
     id 7 
     name rfemur
     direction -0.34202 -0.939693 0   
     length 6.7075   
     axis 0 0 -20   XYZ
    dof rx ry rz
    limits (-160.0 20.0)
           (-70.0 70.0)
           (-70.0 60.0)
  end
  begin
     id 8 
     name rtibia
     direction -0.34202 -0.939693 0   
     length 7.27262   
     axis 0 0 -20   XYZ
    dof rx
    limits (-10.0 170.0)
 end
 begin
     id 9 
     name rfoot
     direction -0.0455203 -0.125066 0.991104   
     length 1.91095  
     axis -90 -7.62852e-016 -20   XYZ
    dof rx rz
    limits (-45.0 90.0)
           (-20.0 70.0)
  end
  begin
     id 10 
     name rtoes
     direction -1.53601e-011 -4.21913e-011 1   
     length 0.969037   
     axis -90 -7.62852e-016 -20   XYZ
    dof rx
    limits (-90.0 20.0)
  end
  begin
     id 11 
     name lowerback
     direction 0.0181546 0.999122 -0.0377542   
     length 1.99916   
     axis 0 0 0   XYZ
    dof rx ry rz
    limits (-20.0 45.0)
           (-30.0 30.0)
           (-30.0 30.0)
  end
  begin
     id 12 
     name upperback
     direction 0.0203486 0.99589 0.0882534   
     length 1.951   
     axis 0 0 0   XYZ
    dof rx ry rz
    limits (-20.0 45.0)
           (-30.0 30.0)
           (-30.0 30.0)
  end
  begin
     id 13 
     name thorax
     direction 0.0131685 0.994241 0.106355   
     length 1.97461   
     axis 0 0 0   XYZ
    dof rx ry rz
    limits (-20.0 45.0)
           (-30.0 30.0)
           (-30.0 30.0)
  end
  begin
     id 14 
     name lowerneck
     direction -0.0281395 0.999325 0.023617   
     length 1.7959   
     axis 0 0 0   XYZ
    dof rx ry rz
    limits (-20.0 45.0)
           (-30.0 30.0)
           (-30.0 30.0)
  end
  begin
     id 15 
     name upperneck
     direction 0.0288721 0.991984 -0.123019   
     length 1.79917   
     axis 0 0 0   XYZ
    dof rx ry rz
    limits (-20.0 45.0)
           (-30.0 30.0)
           (-30.0 30.0)
  end
  begin
     id 16
     name head
     direction 0.0133797 0.998944 -0.0439492  
     length 1.80902  
     axis 0 0 0   XYZ
    dof rx ry rz
    limits (-20.0 45.0)
           (-30.0 30.0)
           (-30.0 30.0)
  end
  begin
     id 17 
     name lclavicle
     direction 0.919195 0.377107 0.113449  
     length 3.17815  
     axis 0 0 0   XYZ
    dof ry rz
    limits (-20.0 10.0)
           (0.0 20.0)
  end
  begin
     id 18 
     name lhumerus
     direction 1 -4.48959e-011 2.13129e-027   
     length 4.84137   
     axis 180 -30 -90   XYZ
    dof rx ry rz
    limits (-60.0 90.0)
           (-90.0 90.0)
           (-90.0 90.0)
  end
  begin
     id 19
     name lradius
     direction 1 -4.48957e-011 -6.30627e-028   
     length 3.2452   
     axis 180 -30 -90   XYZ
    dof rx
    limits (-10.0 170.0)
  end
  begin
     id 20
     name lwrist
     direction 1 -4.4901e-011 9.13299e-027   
     length 1.6226   
     axis -6.84618e-015 90 90   XYZ
    dof ry
    limits (-180.0 0.0)
 end
  begin
     id 21 
     name lhand
     direction 1 -4.48816e-011 1.82293e-026   
     length 0.521221   
     axis -1.16502e-014 90 90   XYZ
    dof rx rz
    limits (-90.0 90.0)
           (-45.0 45.0)
  end
  begin
     id 22 
     name lfingers
     direction 1 -4.49108e-011 3.65687e-026   
     length 0.420221   
     axis -2.33008e-014 90 90   XYZ
    dof rx
    limits (0.0 90.0)
  end
  begin
     id 23
     name lthumb
     direction 0.707107 -6.34943e-011 0.707107   
     length 0.603356   
     axis -90 45 5.69224e-014   XYZ
    dof rx rz
    limits (-45.0 45.0)
           (-45.0 45.0)
  end
  begin
     id 24 
     name rclavicle
     direction -0.90847 0.38596 0.160368   
     length 3.12973  
     axis 0 0 0   XYZ 
    dof ry rz
    limits (-10.0 20.0)
           (-20.0 0.0)
  end
  begin
     id 25 
     name rhumerus
     direction -1 -4.48974e-011 4.47268e-028  
     length 4.72284   
     axis 180 30 90   XYZ
    dof rx ry rz
    limits (-90.0 60.0)
           (-90.0 90.0)
           (-90.0 90.0)
  end
  begin
     id 26 
     name rradius
     direction -1 -4.48969e-011 3.43203e-027   
     length 3.23459   
     axis 180 30 90   XYZ
    dof rx
    limits (-10.0 170.0)
  end
  begin
     id 27 
     name rwrist
     direction -1 -4.48969e-011 9.12911e-027   
     length 1.6173   
     axis -6.84618e-015 -90 -90   XYZ
    dof ry
    limits (-180.0 0.0)
  end
  begin
     id 28
     name rhand
     direction -1 -4.49194e-011 1.83006e-026   
     length 0.307416   
     axis -1.16502e-014 -90 -90   XYZ
    dof rx rz
    limits (-90.0 90.0)
           (-45.0 45.0)
  end
  begin
     id 29
     name rfingers
     direction -1 -4.48423e-011 3.63103e-026   
     length 0.247847   
     axis -2.33008e-014 -90 -90   XYZ
    dof rx
    limits (0.0 90.0)
  end
  begin
     id 30
     name rthumb
     direction -0.707107 -6.34802e-011 0.707107   
     length 0.35586   
     axis -90 -45 -5.69224e-014   XYZ
    dof rx rz
    limits (-45.0 45.0)
           (-45.0 45.0)
  end
:hierarchy
  begin
    root lhipjoint rhipjoint lowerback
    lhipjoint lfemur
    lfemur ltibia
    ltibia lfoot
    lfoot ltoes
    rhipjoint rfemur
    rfemur rtibia
    rtibia rfoot
    rfoot rtoes
    lowerback upperback
    upperback thorax
    thorax lowerneck lclavicle rclavicle
    lowerneck upperneck
    upperneck head
    lclavicle lhumerus
    lhumerus lradius
    lradius lwrist
    lwrist lhand lthumb
    lhand lfingers
    rclavicle rhumerus
    rhumerus rradius
    rradius rwrist
    rwrist rhand rthumb
    rhand rfingers
  end

#!OML:ASF H:\Terrain\Patient Classification 1\Animal1\Tuesday\Animal1.ASF
:FULLY-SPECIFIED
:DEGREES
153
root 24.6514 15.0017 -28.5333 57.9228 -25.5813 -13.298
lowerback 38.9079 -4.4072 -12.3095
upperback 8.6352 -10.5474 -3.97826
thorax -7.83181 -4.70919 6.00012
lowerneck -15.914 6.79764 -8.82514
upperneck -8.96049 11.2865 13.3741
head -1.35403 6.11203 5.83088
rclavicle -1.59028e-014 -3.12092e-014
rhumerus -31.5333 -17.5546 11.1411
rradius 28.6716
rwrist -40.2933
rhand -31.1918 25.3757
rfingers 7.12502
rthumb -4.46839 -4.55721
lclavicle -1.59028e-014 -3.12092e-014
lhumerus 39.9577 17.7007 40.5218
lradius 24.7109
lwrist -30.0886
lhand 12.698 50.9915
lfingers 7.12502
lthumb 37.6806 76.8769
rfemur -85.4305 -6.97667 19.6828
rtibia 36.5001
rfoot 9.61519 -14.5303
rtoes -5.84969
lfemur -73.1769 19.4974 -7.72089
ltibia 55.937
lfoot -19.6257 15.0037
ltoes -22.7668
154
root 24.5358 15.0653 -28.4734 57.3854 -25.5934 -13.0444
lowerback 38.5973 -4.61445 -11.6653
upperback 8.62735 -10.5566 -4.21263
thorax -7.89737 -4.71358 5.43978
lowerneck -17.1298 6.61078 -9.21271
upperneck -7.799 11.0706 13.9001
head -0.845685 6.0823 6.14173
rclavicle 1.27222e-014 2.08724e-015
rhumerus -31.5092 -20.4716 12.6668
rradius 29.0298
rwrist -41.3993
rhand -27.5224 22.9753
rfingers 7.12502
rthumb -0.924607 -7.00247
lclavicle 1.27222e-014 2.08724e-015
lhumerus 38.9376 16.1193 39.4045
lradius 24.9652
lwrist -31.4541
lhand 13.3902 50.1403
lfingers 7.12502
lthumb 38.3343 75.8477
rfemur -84.1723 -6.39388 16.9464
rtibia 33.8755
rfoot 12.7446 -15.9446
rtoes -7.56191
lfemur -71.5458 19.3315 -7.53077
ltibia 54.5483
lfoot -19.1428 15.0811
ltoes -21.7767
155
root 24.4128 15.1296 -28.414 56.7549 -25.7516 -12.8103
lowerback 38.217 -4.37458 -10.9381
upperback 8.71924 -9.99324 -4.42949
thorax -7.9058 -4.47421 4.64727
lowerneck -16.5516 6.15318 -8.97156
upperneck -8.69523 10.4061 13.3295
head -1.0813 5.69518 5.87687
rclavicle -1.59028e-014 -3.30976e-014
rhumerus -32.6875 -21.2494 14.0697
rradius 29.5356
rwrist -42.3719
rhand -26.981 21.834
rfingers 7.12502
rthumb -0.401761 -8.14536
lclavicle -1.59028e-014 -3.30976e-014
lhumerus 39.1242 14.1879 39.594
lradius 25.2021
lwrist -33.7438
lhand 14.76 49.2142
lfingers 7.12502
lthumb 39.6257 74.5521
rfemur -82.96 -5.67529 14.1216
rtibia 31.6372
rfoot 14.7201 -18.7088
rtoes -3.47941
lfemur -69.7887 19.2298 -7.40305
ltibia 53.2075
lfoot -18.4591 15.1021
ltoes -21.7528
156
root 24.2874 15.196 -28.356 56.0687 -25.9331 -12.4257
lowerback 37.7528 -3.94085 -10.3958
upperback 8.93186 -9.22724 -4.50363
thorax -7.69825 -4.16363 4.00098
lowerneck -14.313 5.69942 -7.89979
upperneck -11.5986 9.60642 11.3931
head -2.07007 5.12513 4.9565
rclavicle -6.04305e-014 1.19271e-014
rhumerus -34.2001 -21.6881 15.7482
rradius 30.1636
rwrist -43.6797
rhand -26.2397 20.8096
rfingers 7.12502
rthumb 0.314257 -9.16992
lclavicle -6.04305e-014 1.19271e-014
lhumerus 39.5576 11.7384 39.6369
lradius 25.7832
lwrist -35.0339
lhand 14.9914 48.4864
lfingers 7.12502
lthumb 39.8435 73.7594
rfemur -81.8835 -4.96839 11.1658
rtibia 29.8321
rfoot 14.6013 -23.2482
rtoes 6.50947
lfemur -68.134 19.1251 -7.49911
ltibia 51.9597
lfoot -17.1014 15.6354
ltoes -23.7225
157
root 24.1567 15.2575 -28.2958 55.2604 -26.0926 -11.8156
lowerback 37.5003 -3.33171 -10.571
upperback 9.08037 -8.47392 -4.09859
thorax -7.43334 -3.85889 4.22099
lowerneck -10.9148 5.3894 -6.2298
upperneck -15.7951 8.7857 7.98711
head -3.58958 4.53269 3.46347
rclavicle -5.725e-014 2.97765e-014
rhumerus -34.9733 -21.8879 17.4187
rradius 30.8214
rwrist -45.1324
rhand -25.8434 19.9829
rfingers 7.12502
rthumb 0.696972 -9.99567
lclavicle -5.725e-014 2.97765e-014
lhumerus 39.6565 9.36334 39.6568
lradius 26.6328
lwrist -35.328
lhand 14.0104 48.1367
lfingers 7.12502
lthumb 38.9194 73.6797
rfemur -80.889 -4.34252 8.08618
rtibia 28.4367
rfoot 11.3275 -29.2131
rtoes 20.3911
lfemur -66.6211 18.9207 -7.79164
ltibia 50.9032
lfoot -15.8411 15.9667
ltoes -25.3066
158
root 24.0167 15.308 -28.2417 54.4908 -26.1216 -11.2494
lowerback 37.1874 -3.33843 -10.2909
upperback 9.20551 -8.36384 -4.31143
thorax -7.27251 -3.82402 3.79935
lowerneck -10.184 5.374 -5.07656
upperneck -16.4399 8.54151 6.87397
head -3.79601 4.3517 2.90494
rclavicle 5.725e-014 2.6662e-014
rhumerus -34.9088 -22.5743 17.6778
rradius 31.2594
rwrist -45.4914
rhand -25.8008 19.8283
rfingers 7.12502
rthumb 0.738141 -10.1501
lclavicle 5.725e-014 2.6662e-014
lhumerus 39.2299 7.10123 38.0278
lradius 27.5148
lwrist -34.4987
lhand 13.665 47.7144
lfingers 7.12502
lthumb 38.5936 73.3497
rfemur -80.0531 -3.76906 5.57995
rtibia 27.3309
rfoot 4.95843 -34.6752
rtoes 33.8595
lfemur -65.3573 18.8298 -7.95432
ltibia 50.0652
lfoot -15.2736 15.2246
ltoes -22.9637
